<?xml version="1.0" encoding="utf-8"?>
<!-- Generator: Adobe Illustrator 22.0.1, SVG Export Plug-In . SVG Version: 6.00 Build 0)  -->
<svg version="1.1" id="Layer_1" xmlns="http://www.w3.org/2000/svg" xmlns:xlink="http://www.w3.org/1999/xlink" x="0px" y="0px"
	 viewBox="0 0 113.4 46.9" style="enable-background:new 0 0 113.4 46.9;" xml:space="preserve">
<style type="text/css">
	.st0{fill:#C36D15;}
</style>
<g>
	<g>
		<g>
			<path class="st0" d="M60.5,21.8c0,0.7,0.2,0.9,1,0.9c2,0,3.1-0.6,3.8-2.4h0.4l-0.6,3h-8.2v-0.4c1,0,1.3-0.2,1.3-1.1v-6.7
				c0-0.8-0.2-1.1-1.3-1.1v-0.4h8v2.9h-0.3c-0.3-2-1.2-2.4-3.1-2.4c-0.8,0-1,0.1-1,0.9v3h0.2c1.2,0,1.8-0.6,2-2.1H63v4.8h-0.4
				c-0.2-1.6-0.7-2.2-2-2.2h-0.1V21.8z"/>
			<path class="st0" d="M70,21.8c0,0.7,0.2,0.9,1,0.9c2,0,3.1-0.6,3.8-2.4h0.4l-0.6,3h-8.2v-0.4c1,0,1.3-0.2,1.3-1.1v-6.7
				c0-0.8-0.2-1.1-1.3-1.1v-0.4h4.8V14c-1,0-1.3,0.2-1.3,1.1V21.8z"/>
			<path class="st0" d="M84.4,20.5c0,1.7-1.4,2.8-3.8,2.8h-4.7v-0.4c1,0,1.3-0.2,1.3-1.1v-6.7c0-0.8-0.2-1.1-1.3-1.1v-0.4h4.4
				c2.5,0,3.7,0.8,3.7,2.2c0,1.2-0.8,1.9-2.3,2.2C83.4,18.4,84.4,19.2,84.4,20.5z M79.5,17.9c1.5,0,2-0.5,2-2c0-1.3-0.4-1.8-1.4-1.8
				c-0.7,0-0.7,0.3-0.7,0.9v2.9H79.5z M79.4,21.8c0,0.6,0.2,0.9,0.8,0.9c1.3,0,1.7-0.7,1.7-2.2c0-1.6-0.6-2.2-2.2-2.2h-0.3V21.8z"/>
			<path class="st0" d="M85.3,13.6h4.3c2.8,0,4.2,0.8,4.2,2.5c0,1.2-0.7,2-2.2,2.4l2.5,3.7c0.3,0.5,0.5,0.7,1,0.7v0.4h-3l-2.9-4.5
				h-0.4v3c0,0.8,0.2,1.1,1.3,1.1v0.4h-4.8v-0.4c1,0,1.3-0.2,1.3-1.1v-6.7c0-0.8-0.2-1.1-1.3-1.1V13.6z M89.4,18.2
				c1.5,0,2-0.6,2-2.1c0-1.3-0.5-2-1.6-2c-0.8,0-0.9,0.2-0.9,0.9v3.2H89.4z"/>
			<path class="st0" d="M105.8,13.6V14c-1,0-1.3,0.2-1.3,1.1v4.7c0,2.2-0.8,3.7-3.7,3.7c-2.6,0-3.7-1.1-3.7-3.5v-4.9
				c0-0.8-0.2-1.1-1.3-1.1v-0.4h4.8V14c-1,0-1.3,0.2-1.3,1.1v5.2c0,1.7,0.6,2.4,2,2.4c1.7,0,2.5-0.9,2.5-2.8v-4.8
				c0-0.9-0.2-1.1-1.3-1.1v-0.4H105.8z"/>
			<path class="st0" d="M106.7,19.9h0.4c0.5,2,1.4,3.1,2.8,3.1c1.1,0,1.7-0.7,1.7-1.6c0-0.7-0.4-1.1-1.1-1.5l-1.3-0.7
				c-1.7-0.8-2.4-1.7-2.4-3c0-1.7,1.2-2.8,2.9-2.8c1.3,0,2,0.4,2.4,0.4c0.2,0,0.4-0.1,0.4-0.4h0.4v3.1h-0.4
				c-0.4-1.6-1.6-2.6-2.7-2.6c-0.9,0-1.6,0.5-1.6,1.3c0,0.7,0.5,1.2,1.5,1.6l1.4,0.6c1.5,0.7,2.2,1.5,2.2,3c0,1.8-1.4,3-3.5,3
				c-1.2,0-1.9-0.5-2.3-0.5c-0.3,0-0.4,0.2-0.5,0.5h-0.4V19.9z"/>
			<path class="st0" d="M56.9,26.5h4.4c2.1,0,3.9,0.5,3.9,2.6c0,1.6-1.2,2.7-3.5,2.7h-1.3v2.9c0,0.8,0.2,1.1,1.3,1.1v0.4h-4.8v-0.4
				c1,0,1.3-0.2,1.3-1.1v-6.7c0-0.8-0.2-1.1-1.3-1.1V26.5z M60.9,31.2c1.4,0,1.9-0.6,1.9-2.1c0-1.5-0.4-2.2-1.6-2.2
				c-0.6,0-0.7,0.1-0.7,0.9v3.3H60.9z"/>
			<path class="st0" d="M69.8,34.6c0,0.7,0.2,0.9,1,0.9c2,0,3.1-0.6,3.8-2.4H75l-0.6,3h-8.2v-0.4c1,0,1.3-0.2,1.3-1.1v-6.7
				c0-0.8-0.2-1.1-1.3-1.1v-0.4h4.8v0.4c-1,0-1.3,0.2-1.3,1.1V34.6z"/>
			<path class="st0" d="M80.3,26.2l3.4,8c0.4,1,0.6,1.5,1.3,1.5v0.4h-4.5v-0.4c0.8,0,1.2-0.2,1.2-0.6c0-0.1-0.1-0.4-0.2-0.7
				l-0.4-1.1h-3.1l-0.4,1c-0.1,0.3-0.2,0.6-0.2,0.7c0,0.5,0.3,0.7,1,0.7h0.1v0.4h-2.9v-0.4c0.6,0,0.9-0.4,1.2-1.2l3.3-8.3H80.3z
				 M80.6,32.7l-1.4-3.4l-1.3,3.4H80.6z"/>
			<path class="st0" d="M93.7,26.5v0.3l-5.3,8.8h1.8c2,0,3.1-0.9,3.5-2.8H94l-0.4,3.5h-8.2v-0.2l5.4-8.9h-1.3
				c-1.8,0-2.7,0.5-3.2,2.4H86l0.3-2.9H93.7z"/>
			<path class="st0" d="M99.5,26.2l3.4,8c0.4,1,0.6,1.5,1.3,1.5v0.4h-4.5v-0.4c0.8,0,1.2-0.2,1.2-0.6c0-0.1-0.1-0.4-0.2-0.7
				l-0.4-1.1H97l-0.4,1c-0.1,0.3-0.2,0.6-0.2,0.7c0,0.5,0.3,0.7,1,0.7h0.1v0.4h-2.9v-0.4c0.6,0,0.9-0.4,1.2-1.2l3.3-8.3H99.5z
				 M99.9,32.7l-1.4-3.4l-1.3,3.4H99.9z"/>
		</g>
		<g>
			<path class="st0" d="M58.7,6.4c0,0.5,0.1,0.6,0.7,0.6v0.2h-2.8V7.1c0.6,0,0.7-0.1,0.7-0.6V2.6c0-0.5-0.1-0.6-0.7-0.6V1.8h2.8V2
				c-0.6,0-0.7,0.1-0.7,0.6v1.6h1.9V2.6c0-0.5-0.1-0.6-0.7-0.6V1.8h2.8V2c-0.6,0-0.7,0.1-0.7,0.6v3.8c0,0.5,0.1,0.6,0.7,0.6v0.2
				h-2.8V7.1c0.6,0,0.7-0.1,0.7-0.6V4.6h-1.9V6.4z"/>
			<path class="st0" d="M71.3,1.7c1.6,0,2.8,1.2,2.8,2.9c0,1.6-1.2,2.9-2.9,2.9c-1.6,0-2.8-1.2-2.8-2.9C68.4,2.9,69.6,1.7,71.3,1.7z
				 M71.2,2c-0.9,0-1.4,0.8-1.4,2.6c0,1.7,0.5,2.6,1.4,2.6c0.9,0,1.4-0.9,1.4-2.6C72.7,2.8,72.1,2,71.2,2z"/>
			<path class="st0" d="M81.6,2.1L81.6,2.1c-0.9,0-1.4,0.5-1.5,1.4h-0.2V1.8h4.7v1.7h-0.2c-0.1-0.9-0.5-1.4-1.5-1.4h-0.1v4.4
				c0,0.5,0.1,0.6,0.7,0.6v0.2h-2.8V7.1c0.6,0,0.7-0.1,0.7-0.6V2.1z"/>
			<path class="st0" d="M92.4,6.4c0,0.4,0.1,0.5,0.6,0.5c1.1,0,1.7-0.3,2.2-1.4h0.2L95,7.3h-4.7V7.1c0.6,0,0.7-0.1,0.7-0.6V2.6
				C91.1,2.1,91,2,90.4,2V1.8h4.6v1.6h-0.2C94.5,2.3,94,2.1,93,2.1c-0.5,0-0.6,0.1-0.6,0.5v1.7h0.1c0.7,0,1-0.3,1.1-1.2h0.2v2.7
				h-0.2c-0.1-0.9-0.4-1.3-1.1-1.3h-0.1V6.4z"/>
			<path class="st0" d="M103.1,6.4c0,0.4,0.1,0.5,0.6,0.5c1.1,0,1.7-0.3,2.2-1.4h0.2l-0.3,1.7h-4.7V7.1c0.6,0,0.7-0.1,0.7-0.6V2.6
				c0-0.5-0.1-0.6-0.7-0.6V1.8h2.8V2c-0.6,0-0.7,0.1-0.7,0.6V6.4z"/>
		</g>
		<g>
			<g>
				<path class="st0" d="M66.6,45.9c0,0.4,0.2,0.6,0.6,0.6v0.2h-2v-0.2c0.4,0,0.5-0.2,0.5-0.6l0-0.5h-1.3L64,45.9
					c-0.2,0.2-0.2,0.4-0.2,0.4c0,0.1,0.1,0.2,0.3,0.2v0.2h-1.3v-0.2c0.2,0,0.5-0.1,0.8-0.5l3-3.7h0.2C66.7,43.5,66.6,45.8,66.6,45.9
					z M65.8,45.1l0.1-1.5l-1.2,1.5H65.8z"/>
				<path class="st0" d="M70.2,46.7l-0.7-2.1h-0.2L69,45.9c0,0.2-0.1,0.3-0.1,0.3c0,0.2,0.2,0.3,0.5,0.3v0.2h-2v-0.2
					c0.4,0,0.5-0.2,0.7-0.7l0.7-2.6c0-0.1,0.1-0.3,0.1-0.4c0-0.2-0.1-0.3-0.4-0.3v-0.2h1.7c1,0,1.5,0.3,1.5,0.9c0,0.5-0.4,1-1.2,1.1
					l0.5,1.6c0.1,0.3,0.2,0.4,0.5,0.4v0.2H70.2z M69.6,44.3c0.7,0,1.1-0.5,1.1-1.1c0-0.4-0.2-0.6-0.6-0.6c-0.2,0-0.3,0.3-0.4,0.5
					l-0.3,1.3C69.5,44.3,69.6,44.3,69.6,44.3z"/>
				<path class="st0" d="M76.3,42.4v0.2h-0.1c-0.2,0-0.3,0.1-0.6,0.4l-1.3,1.2l0.9,2c0.1,0.3,0.2,0.4,0.5,0.4v0.2H74v-0.2h0.1
					c0.2,0,0.3-0.1,0.3-0.2c0,0,0-0.2-0.1-0.4l-0.6-1.3c0,0,0,0,0,0c0,0,0,0,0,0.1l-0.3,1.2c0,0.2-0.1,0.3-0.1,0.3
					c0,0.2,0.2,0.3,0.5,0.3v0.2h-2v-0.2c0.4,0,0.5-0.2,0.7-0.7l0.7-2.7c0-0.1,0-0.3,0-0.3c0-0.2-0.1-0.3-0.4-0.3v-0.2h2v0.2
					c-0.5,0-0.6,0.2-0.7,0.6c-0.3,1.1-0.3,1.2-0.3,1.2c0,0,0,0,0,0c0,0,0,0,0.1,0l1.1-1c0.3-0.3,0.5-0.5,0.5-0.6
					c0-0.1-0.1-0.2-0.3-0.2v-0.2H76.3z"/>
				<path class="st0" d="M82.2,44.6v0.2c-0.3,0-0.4,0.2-0.5,0.6l-0.3,1.1c-0.5,0.3-1.1,0.4-1.6,0.4c-1.2,0-1.9-0.7-1.9-1.8
					c0-1.3,1-2.7,2.7-2.7c0.5,0,0.9,0.2,1.1,0.2c0.1,0,0.1,0,0.2-0.2h0.2l-0.3,1.4h-0.2c0-0.7-0.4-1.1-1-1.1c-1.1,0-1.8,1.8-1.8,2.8
					c0,0.8,0.4,1.2,1.1,1.2c0.4,0,0.6-0.2,0.7-0.6l0.2-0.7c0-0.1,0.1-0.3,0.1-0.3c0-0.2-0.2-0.3-0.5-0.3v-0.2H82.2z"/>
				<path class="st0" d="M85,46.7l-0.7-2.1h-0.2l-0.4,1.3c0,0.2-0.1,0.3-0.1,0.3c0,0.2,0.2,0.3,0.5,0.3v0.2h-2v-0.2
					c0.4,0,0.5-0.2,0.7-0.7l0.7-2.6c0-0.1,0.1-0.3,0.1-0.4c0-0.2-0.1-0.3-0.4-0.3v-0.2h1.7c1,0,1.5,0.3,1.5,0.9c0,0.5-0.4,1-1.2,1.1
					l0.5,1.6c0.1,0.3,0.2,0.4,0.5,0.4v0.2H85z M84.4,44.3c0.7,0,1.1-0.5,1.1-1.1c0-0.4-0.2-0.6-0.6-0.6c-0.2,0-0.3,0.3-0.4,0.5
					l-0.3,1.3C84.2,44.3,84.3,44.3,84.4,44.3z"/>
				<path class="st0" d="M91.1,43.8c0,1.4-1.2,2.9-2.7,2.9c-0.9,0-1.5-0.6-1.5-1.6c0-1.3,1.2-2.9,2.6-2.9
					C90.5,42.3,91.1,42.9,91.1,43.8z M87.8,45.7c0,0.6,0.2,0.8,0.6,0.8c1.1,0,1.7-2.3,1.7-3.2c0-0.5-0.2-0.8-0.6-0.8
					C88.4,42.5,87.8,44.9,87.8,45.7z"/>
				<path class="st0" d="M96.1,42.4v0.2c-0.4,0-0.5,0.1-0.7,0.6l-0.5,1.9c-0.3,1.1-0.8,1.6-1.8,1.6c-0.9,0-1.4-0.4-1.4-1.1
					c0-0.2,0.1-0.4,0.1-0.7l0.5-1.8c0-0.1,0-0.3,0-0.3c0-0.2-0.1-0.3-0.4-0.3v-0.2h2v0.2c-0.5,0-0.6,0.2-0.7,0.6l-0.5,2
					c-0.1,0.2-0.1,0.4-0.1,0.6c0,0.4,0.3,0.7,0.7,0.7c0.7,0,1.1-0.5,1.4-1.6l0.4-1.6c0-0.1,0.1-0.3,0.1-0.4c0-0.2-0.1-0.3-0.4-0.3
					v-0.2H96.1z"/>
				<path class="st0" d="M97,45.9c0,0.2-0.1,0.3-0.1,0.3c0,0.2,0.2,0.3,0.5,0.3v0.2h-2v-0.2c0.4,0,0.5-0.2,0.7-0.7l0.7-2.6
					c0-0.1,0.1-0.3,0.1-0.4c0-0.2-0.1-0.3-0.4-0.3v-0.2h1.8c0.9,0,1.4,0.3,1.4,1c0,0.9-1,1.2-2,1.2h-0.2L97,45.9z M97.6,44.4
					c0.7,0,1.1-0.4,1.1-1.2c0-0.4-0.2-0.6-0.6-0.6c-0.2,0-0.3,0.3-0.4,0.5l-0.3,1.2C97.5,44.4,97.6,44.4,97.6,44.4z"/>
			</g>
			<g>
				<g>
					<path class="st0" d="M106,45.2c-0.6-0.4-1.3-0.7-2.1-0.5c-0.9,0.2-1.3,0.6-1.7,1.1c0.3,0.5,0.7,0.8,1.6,0.7
						c0.2,0,0.4-0.1,0.6-0.2c0.2-0.1,0.4-0.2,0.6-0.3C105.3,45.8,105.7,45.5,106,45.2z"/>
					<path class="st0" d="M102.6,42.3c-0.7,0.7-1.4,2.1-0.9,3C102.5,45,103.1,43.7,102.6,42.3z"/>
				</g>
				<g>
					<path class="st0" d="M56.5,45.2c0.6-0.4,1.3-0.7,2.1-0.5c0.9,0.2,1.3,0.6,1.7,1.1c-0.3,0.5-0.7,0.8-1.6,0.7
						c-0.2,0-0.4-0.1-0.6-0.2c-0.2-0.1-0.4-0.2-0.6-0.3C57.1,45.8,56.7,45.5,56.5,45.2z"/>
					<path class="st0" d="M59.8,42.3c0.7,0.7,1.4,2.1,0.9,3C59.9,45,59.3,43.7,59.8,42.3z"/>
				</g>
			</g>
		</g>
	</g>
	<g>
		<path class="st0" d="M8,12.1v15.2c0,2.9,1.5,5.6,4,7.2l11.4,7.2l11.4-7.2c2.5-1.6,4-4.3,4-7.2V12.1c0-2.2,0.5-2.9,3.5-2.9h0.3V7.5
			h-6l-0.1-0.1c0,0-2-2.7-5.4-5.7c-1.5-1.3-2.7-2-4.1-1.7c-1.3,0.3-2.7,1.4-5,3.1L22,3.3c-1.5-1.4-2.6-2-4.2-1.4
			c-1.6,0.6-3.6,2.2-7.6,5.5l-0.1,0.1v0h-6v1.7h0.3C7.5,9.2,8,9.9,8,12.1z M4.8,8.2L5,8.1h1.2L5.4,8.6c-0.2,0-0.4,0-0.6,0V8.2z
			 M6.8,8.1H8L6.8,8.8C6.5,8.7,6.2,8.7,5.9,8.6L6.8,8.1z M7.1,8.9l1.4-0.9h1.2L7.8,9.3C7.6,9.2,7.4,9,7.1,8.9z M38,8.1h1.2l-2.6,1.6
			V9L38,8.1z M36.6,8.6V8.1h0.9L36.6,8.6z M39.8,8.1H41l-1.4,0.9c-0.3,0.1-0.5,0.3-0.7,0.4l-2.3,1.5v-0.8L39.8,8.1z M38.5,10
			c-0.1,0.3-0.2,0.6-0.3,0.9l-1.6,1v-0.8L38.5,10z M38.2,11.3c0,0.2,0,0.5,0,0.8l-1.5,1v-0.8L38.2,11.3z M38.2,12.4v0.8l-1.5,1v-0.8
			L38.2,12.4z M38.2,13.5v0.8l-1.5,1v-0.8L38.2,13.5z M38.2,14.6v0.8l-1.5,1v-0.8L38.2,14.6z M38.2,15.7v0.8l-1.5,1v-0.8L38.2,15.7z
			 M38.2,27.4l-1.6,1c0-0.3,0.1-0.5,0.1-0.8l1.5-1L38.2,27.4C38.2,27.3,38.2,27.3,38.2,27.4z M8.6,27.3v-0.7l1.5-1v0v0.8L8.6,27.3
			C8.6,27.3,8.6,27.3,8.6,27.3z M10.2,16.6l-1.5,1v-0.8l1.5-1V16.6z M8.6,20l1.5-1v0.8l-1.5,1V20z M8.6,21.1l1.5-1v0.8l-1.5,1V21.1z
			 M8.6,22.2l1.5-1V22l-1.5,1V22.2z M8.6,23.3l1.5-1v0.8l-1.5,1V23.3z M8.6,24.4l1.5-1v0.8l-1.5,1V24.4z M8.6,25.5l1.5-1v0.8l-1.5,1
			V25.5z M10.2,18.7l-1.5,1v-0.8l1.5-1V18.7z M10.2,15.5l-1.5,1v-0.8l1.5-1V15.5z M10.2,14.4l-1.5,1v-0.8l1.5-1V14.4z M10.2,13.3
			l-1.5,1v-0.8l1.5-1V13.3z M10.2,12.2l-1.5,1v-0.8l1.5-1V12.2z M10.2,10l-1.6,1c0-0.2-0.1-0.5-0.2-0.7l1.7-1.1V10z M10.2,10.3v0.8
			l-1.5,1c0-0.3,0-0.5,0-0.7L10.2,10.3z M10.2,26.7v0.6c0,0.1,0,0.1,0,0.2l-1.5,0.9c0-0.2,0-0.5-0.1-0.7L10.2,26.7z M10.2,27.8
			c0,0.2,0,0.5,0.1,0.7l-1.4,0.9c-0.1-0.2-0.1-0.5-0.1-0.7L10.2,27.8z M10.3,28.8c0.1,0.2,0.1,0.4,0.2,0.6l-1.3,0.8
			c-0.1-0.2-0.1-0.4-0.2-0.6L10.3,28.8z M10.6,29.7c0.1,0.2,0.2,0.4,0.3,0.6l-1.3,0.8c-0.1-0.2-0.2-0.4-0.3-0.6L10.6,29.7z M11,30.5
			c0.1,0.2,0.2,0.4,0.4,0.5l-1.3,0.8c-0.1-0.2-0.2-0.4-0.4-0.5L11,30.5z M12.7,32.4l-1.4,0.9c-0.2-0.1-0.3-0.3-0.5-0.5l1.3-0.8
			C12.4,32.1,12.6,32.3,12.7,32.4z M13,32.6c0.1,0,0.1,0.1,0.2,0.1l0.4,0.3l-1.4,0.9c-0.2-0.1-0.4-0.3-0.6-0.4L13,32.6z M13.8,33.1
			l0.6,0.4L13,34.4L12.4,34L13.8,33.1z M14.7,33.7l0.6,0.4L13.9,35l-0.6-0.4L14.7,33.7z M15.6,34.2l0.6,0.4l-1.4,0.9l-0.6-0.4
			L15.6,34.2z M16.5,34.8l0.6,0.4l-1.4,0.9L15,35.7L16.5,34.8z M17.3,35.3l0.6,0.4l-1.4,0.9l-0.6-0.4L17.3,35.3z M18.2,35.9l0.6,0.4
			l-1.4,0.9l-0.6-0.4L18.2,35.9z M19.1,36.4l0.6,0.4l-1.4,0.9l-0.6-0.4L19.1,36.4z M19.9,37l0.6,0.4l-1.4,0.9l-0.6-0.4L19.9,37z
			 M20.8,37.5l0.6,0.4L20,38.8l-0.6-0.4L20.8,37.5z M21.7,38.1l0.6,0.4l-1.4,0.9L20.2,39L21.7,38.1z M22.5,38.6l0.6,0.4l-1.4,0.9
			l-0.6-0.4L22.5,38.6z M37.6,30.2c-0.2,0.4-0.4,0.8-0.6,1.1l-14.4,9.1L22,40.1L37.6,30.2z M35,31.5c0.4-0.4,0.7-0.9,0.9-1.3l2-1.3
			c-0.1,0.3-0.1,0.6-0.2,0.9L35,31.5z M36.2,29.7c0.1-0.3,0.2-0.6,0.3-1l1.7-1c0,0.3,0,0.6-0.1,0.8L36.2,29.7z M36.6,27.2v-0.8
			l1.5-1v0.8L36.6,27.2z M36.6,26.1v-0.5v-0.3l1.5-1v0.8L36.6,26.1z M36.6,25v-0.8l1.5-1v0.8L36.6,25z M36.6,23.9v-0.8l1.5-1V23
			L36.6,23.9z M36.6,22.9v-0.8l1.5-1v0.8L36.6,22.9z M36.6,21.8V21l1.5-1v0.8L36.6,21.8z M36.6,20.7v-0.8l1.5-1v0.8L36.6,20.7z
			 M36.6,19.6v-0.8l1.5-1v0.8L36.6,19.6z M36.6,18.5v-0.8l1.5-1v0.8L36.6,18.5z M10.2,17.6l-1.5,1v-0.8l1.5-1v0.6V17.6z M8,9.5
			l2.2-1.4v0.8l-1.9,1.2C8.2,9.9,8.1,9.7,8,9.5z M10.3,32.1l1.3-0.8c0.1,0.2,0.3,0.3,0.4,0.5l-1.3,0.8
			C10.6,32.5,10.4,32.3,10.3,32.1z M34.5,34l-11.1,7l-0.6-0.3l13.8-8.7C36.1,32.7,35.4,33.4,34.5,34z M42,8.5L42,8.5
			c-0.6,0-1,0.1-1.5,0.1l1-0.6H42V8.5z M10.8,7.7C14.5,4.6,16.6,3,18,2.4c0.2-0.1,0.4-0.1,0.5-0.1c0,0,0,0,0,0
			c0.1,0.1,0.1,0.2,0.2,0.3c0.1,0.3,0,0.6,0.1,0.9c0,0.2,0.1,0.4,0.2,0.6c0.1,0.1,0.1,0.3,0.2,0.4c0,0.1,0,0.1,0,0.2
			c0,0.1-0.1,0.3-0.2,0.4c0,0.1,0,0.2,0,0.3c-0.1,0.3-0.5,0.5-0.6,0.8c0.2,0,0.3-0.1,0.5-0.2c0.7-0.5,2.2-1.4,3-2l0.5-0.4
			c2.4-1.9,3.8-2.9,4.9-3C27.6,0.8,27.8,1,28,1.2c0,0.1,0.1,0.2,0.1,0.3c0,0.1-0.1,0.1-0.1,0.2c-0.2,0.3-0.2,0.7-0.1,1.1
			c0,0.1,0.1,0.1,0.1,0.2c0,0.2-0.2,0.3-0.2,0.5c-0.1,0.2,0,0.5,0.2,0.6c0.2,0.1,0.4,0.2,0.7,0.2c0.3,0,0.5,0.1,0.7,0.3
			c0,0,0.1,0.1,0.1,0.1c0.1,0.1,0.2,0.1,0.2,0.1C30,5,30.4,5.2,30.6,5.6c0.2,0.4,0.1,0.9-0.2,1.1c-0.1,0.1-0.2,0.1-0.4,0.2
			c-0.1,0.1-0.2,0.2-0.2,0.3c0,0.2,0.2,0.3,0.4,0.3c0.6,0.1,1.3,0,1.9-0.1c0.6-0.1,1.2,0,1.8,0c0.8,0,1.3,0.1,2.1,0.2v9.8v8.2
			c0,0.9-0.5,1.8-1.3,2.3l-11.4,7.1L12,27.9c-0.8-0.5-1.3-1.4-1.3-2.3v-8.2V7.7z"/>
		<path class="st0" d="M13.8,7.1c0.3,0,0.7-0.1,1-0.1c0.6,0,1.2,0.3,1.8,0.2c0.2,0,0.4-0.1,0.4-0.3c-0.4,0-0.8-0.1-1.1-0.3
			c-0.1-0.1-0.2-0.1-0.3-0.2c-0.4-0.1-0.8,0.3-1.2,0.3c-0.3,0-1.3-0.3-1.3,0.3C13.2,7.3,13.6,7.2,13.8,7.1z"/>
		<path class="st0" d="M24.2,5.5c0.3,0.2,0.3,0.7,0.6,1c0.2,0.2,0.6,0.2,0.9,0.2c0.7,0,1.3,0.2,2,0.4c0.1,0,0.3,0.1,0.4,0
			c0.2-0.1,0.2-0.3,0.2-0.5c0-0.1,0-0.1,0-0.2c0-0.1-0.1-0.1-0.1-0.1c-0.2-0.1-0.5-0.1-0.7-0.3c-0.3-0.2-0.5-0.4-0.6-0.7
			c-0.2-0.3-0.4-0.6-0.6-0.8c-0.1-0.1-0.2-0.3-0.3-0.4c-0.3-0.2-0.7-0.2-1.1-0.2c-0.2,0-0.3,0.1-0.4,0.2c-0.1,0.1-0.2,0.2-0.4,0.3
			c-0.2,0.1-0.4,0.2-0.4,0.4C23.7,5.4,24,5.4,24.2,5.5z"/>
		<path class="st0" d="M21.3,6.5c0.2,0,0.4-0.1,0.5,0c0.1,0,0.1,0.1,0.2,0.1c0.1,0,0.2,0,0.3,0c0.1,0,0.1,0,0.2,0.1
			c0.1,0,0.1,0,0.2,0c0.1-0.1,0-0.2,0-0.2c-0.1-0.1-0.1-0.1-0.2-0.2C22.4,6.2,22.4,6,22.3,6c-0.2-0.4-0.6,0-0.9,0.1
			c-0.1,0.1-0.2,0.2-0.2,0.3C21.2,6.4,21.2,6.5,21.3,6.5C21.2,6.5,21.2,6.5,21.3,6.5z"/>
		<path class="st0" d="M31.6,41.8c0,0.4,0,0.6,0,0.6c3.2-1.3,3.6-4,3.1-5.2C33,38.2,31.8,39.7,31.6,41.8z"/>
		<path class="st0" d="M35.8,39.8c2.8-1.4,3.3-4.1,2.4-5.5C36.1,36,35.6,38.3,35.8,39.8z"/>
		<path class="st0" d="M43.9,17.3c1.1-3.1-0.5-5.5-1.6-6.1C41.8,14.3,42.8,16.6,43.9,17.3z"/>
		<path class="st0" d="M40.4,29.7c-1.3,2.2-1.2,4.4-0.3,5.8C42.2,33.1,41.7,30.6,40.4,29.7z"/>
		<path class="st0" d="M41.6,25.3c-0.7,2.7,0.3,4.5,1.1,5.3C43.9,27.7,42.7,25.7,41.6,25.3z"/>
		<path class="st0" d="M41.9,21.1c-0.3,2.5,0.6,4.1,1.8,4.8C44.3,23.1,43.1,21.3,41.9,21.1z"/>
		<path class="st0" d="M41.9,17.2c0,2.4,1.1,3.7,2.1,4C44.2,18.4,42.7,17.3,41.9,17.2z"/>
		<path class="st0" d="M31.7,42.7c0,0,0.1,0.2,0.4,0.4c1.7,1.5,4,1,5.9-0.6C36.5,41,33.6,41.8,31.7,42.7z"/>
		<path class="st0" d="M36.1,40.3c1.5,1.2,4.2,0.7,5.9-2.4C40.2,37.1,37.7,38.9,36.1,40.3z"/>
		<path class="st0" d="M30.6,39.5c-2,0.7-3.5,2.1-4,4.3c-0.1,0.4-0.1,0.6-0.1,0.6C30.2,43.6,31,40.9,30.6,39.5z"/>
		<path class="st0" d="M26.6,44.8c0,0,0.1,0.2,0.3,0.5c1.6,1.9,4.1,1.8,6.3,0.4C31.9,43.9,28.7,44.2,26.6,44.8z"/>
		<path class="st0" d="M40.4,35.8c1.8,0.8,4.3-0.7,5-4C43.4,31.6,41.5,34,40.4,35.8z"/>
		<path class="st0" d="M43.1,30.8c0,0,0.2,0,0.5,0c1.8-0.4,2.9-2.4,2.9-4.8C44.7,26.3,43.7,28.9,43.1,30.8z"/>
		<path class="st0" d="M44.1,25.8c1.5-0.2,2.9-2,2.6-4.9C45.1,21.3,44.4,23.9,44.1,25.8z"/>
		<path class="st0" d="M45.9,16.5c-1.4,0.7-1.6,3-1.4,4.7C45.4,20.8,46.7,19.2,45.9,16.5z"/>
		<path class="st0" d="M23.4,43.5c-0.9,0-1.7,0.8-1.7,1.7c0,0.9,0.8,1.7,1.7,1.7c0.9,0,1.7-0.8,1.7-1.7
			C25.1,44.2,24.3,43.5,23.4,43.5z M23.4,46.3c-0.6,0-1.1-0.5-1.1-1.1c0-0.6,0.5-1.1,1.1-1.1c0.6,0,1.1,0.5,1.1,1.1
			C24.5,45.8,24,46.3,23.4,46.3z"/>
		<path class="st0" d="M21.2,11.4v2h2.9v-2h1.5c1.9,0,3.4,1.5,3.4,3.4v1.1c0,1.9-1.5,3.4-3.4,3.4h-0.5v0.8h2.1
			c2.6,0,4.7-2.1,4.7-4.7l0,0c0-2.6-2.1-4.7-4.7-4.7h-6h-1V11c0.1,0.1,0.3,0.1,0.5,0.2C20.9,11.3,21,11.3,21.2,11.4z"/>
		<path class="st0" d="M24.1,28v-2h-2.9v2c-0.2,0-0.3,0.1-0.5,0.1c-0.2,0.1-0.3,0.1-0.5,0.2v0.4h1h2.9h1v-0.4
			c-0.1-0.1-0.3-0.1-0.5-0.2C24.4,28.1,24.3,28,24.1,28z"/>
		<path class="st0" d="M14.9,14.3v0.4c0.1,0.1,0.3,0.1,0.5,0.2c0.2,0.1,0.3,0.1,0.5,0.1v9.2c-0.2,0-0.3,0.1-0.5,0.1
			c-0.2,0.1-0.3,0.1-0.5,0.2V25h1h2.9h6.6h1.3v-0.8c0-0.4-0.2-1-0.2-1.4h-0.5l-0.5,1.4h-6.6v-4.2h2.4v3.2h2.9v-7.2h-2.9v3.2h-2.4
			v-4.2h6.6l0.5,1.4h0.5c0.1-0.3,0.2-1,0.2-1.4v-0.8h-1.3h-6.6h-2.9H14.9z"/>
		<path class="st0" d="M12.1,37.2c-0.5,1.2-0.1,3.9,3.1,5.2c0,0,0-0.2,0-0.6C15,39.7,13.8,38.2,12.1,37.2z"/>
		<path class="st0" d="M8.5,34.3c-0.9,1.4-0.3,4,2.4,5.5C11.2,38.3,10.7,36,8.5,34.3z"/>
		<path class="st0" d="M4.4,11.2c-1,0.6-2.7,3-1.6,6.1C4,16.6,5,14.3,4.4,11.2z"/>
		<path class="st0" d="M6.4,29.7c-1.2,0.9-1.7,3.4,0.3,5.8C7.5,34.1,7.6,32,6.4,29.7z"/>
		<path class="st0" d="M5.2,25.3c-1.1,0.4-2.3,2.4-1.1,5.3C4.9,29.9,5.9,28,5.2,25.3z"/>
		<path class="st0" d="M4.9,21.1c-1.2,0.2-2.5,2.1-1.8,4.8C4.3,25.2,5.2,23.5,4.9,21.1z"/>
		<path class="st0" d="M2.8,21.2c1-0.4,2.2-1.7,2.1-4C4.1,17.3,2.6,18.4,2.8,21.2z"/>
		<path class="st0" d="M15.1,42.7c-1.9-0.9-4.8-1.7-6.3-0.2c1.9,1.7,4.2,2.2,5.9,0.6C15,42.9,15.1,42.7,15.1,42.7z"/>
		<path class="st0" d="M10.7,40.3c-1.5-1.4-4-3.2-5.9-2.4C6.4,41,9.2,41.5,10.7,40.3z"/>
		<path class="st0" d="M16.2,39.5c-0.3,1.4,0.5,4.1,4.1,4.9c0,0,0-0.2-0.1-0.6C19.7,41.6,18.2,40.3,16.2,39.5z"/>
		<path class="st0" d="M13.6,45.7c2.2,1.4,4.7,1.5,6.3-0.4c0.2-0.3,0.3-0.5,0.3-0.5C18.1,44.2,14.9,43.9,13.6,45.7z"/>
		<path class="st0" d="M6.4,35.8c-1.1-1.7-3.1-4.2-5-4C2.2,35.1,4.7,36.6,6.4,35.8z"/>
		<path class="st0" d="M3.2,30.8c0.3,0.1,0.5,0,0.5,0c-0.5-1.9-1.6-4.5-3.4-4.8C0.3,28.4,1.4,30.4,3.2,30.8z"/>
		<path class="st0" d="M2.7,25.8c-0.2-1.9-1-4.5-2.6-4.9C-0.3,23.8,1.2,25.6,2.7,25.8z"/>
		<path class="st0" d="M2.3,21.2c0.2-1.7,0-4-1.4-4.7C0.1,19.2,1.4,20.8,2.3,21.2z"/>
	</g>
</g>
</svg>
