<?xml version="1.0" encoding="utf-8"?>
<!-- Generator: Adobe Illustrator 22.0.1, SVG Export Plug-In . SVG Version: 6.00 Build 0)  -->
<svg version="1.1" id="Layer_1" xmlns="http://www.w3.org/2000/svg" xmlns:xlink="http://www.w3.org/1999/xlink" x="0px" y="0px"
	 viewBox="0 0 113.4 91.8" style="enable-background:new 0 0 113.4 91.8;" xml:space="preserve">
<style type="text/css">
	.st0{fill:#C36D15;}
</style>
<g>
	<path class="st0" d="M4.8,80c-0.8,0-1.1-0.2-1.1-0.9v-3.4h0.2c1.3,0,1.9,0.7,2.1,2.3h0.4v-5.1H6c-0.2,1.6-0.8,2.2-2.1,2.2H3.7V72
		c0-0.8,0.2-1,1.1-1c2,0,2.9,0.4,3.3,2.5h0.4v-3H0v0.4c1.1,0,1.3,0.3,1.3,1.1v7.1c0,0.9-0.3,1.1-1.3,1.1v0.4h8.6l0.6-3.2H8.8
		C8,79.4,6.9,80,4.8,80z"/>
	<path class="st0" d="M14.8,80c-0.8,0-1.1-0.2-1.1-0.9V72c0-0.9,0.3-1.1,1.3-1.1v-0.4H10v0.4c1.1,0,1.3,0.3,1.3,1.1v7.1
		c0,0.9-0.3,1.1-1.3,1.1v0.4h8.6l0.6-3.2h-0.4C18,79.4,16.8,80,14.8,80z"/>
	<path class="st0" d="M25.8,75.1c1.6-0.3,2.4-1.1,2.4-2.3c0-1.5-1.3-2.3-3.9-2.3h-4.6v0.4c1.1,0,1.3,0.3,1.3,1.1v7.1
		c0,0.9-0.3,1.1-1.3,1.1v0.4h5c2.5,0,4-1.1,4-2.9C28.8,76.3,27.8,75.5,25.8,75.1z M23.5,72c0-0.7,0-1,0.8-1c1.1,0,1.5,0.6,1.5,1.9
		c0,1.6-0.6,2.1-2.1,2.1h-0.1V72z M24.4,80.1c-0.7,0-0.9-0.3-0.9-1v-3.6h0.3c1.7,0,2.3,0.6,2.3,2.3C26.2,79.3,25.7,80.1,24.4,80.1z"
		/>
	<path class="st0" d="M40.1,80.2c-0.5,0-0.7-0.3-1.1-0.7l-2.6-3.8c1.5-0.4,2.3-1.3,2.3-2.5c0-1.8-1.5-2.6-4.4-2.6h-4.5v0.4
		c1.1,0,1.3,0.3,1.3,1.1v7.1c0,0.9-0.3,1.1-1.3,1.1v0.4h5.1v-0.4c-1.1,0-1.3-0.3-1.3-1.1v-3.2H34l3,4.7h3.1V80.2z M34,75.4h-0.5V72
		c0-0.8,0.1-1,0.9-1c1.2,0,1.7,0.7,1.7,2.1C36.1,74.7,35.5,75.4,34,75.4z"/>
	<path class="st0" d="M42.1,77.2c0,2.5,1.1,3.7,3.9,3.7c3,0,3.9-1.6,3.9-3.9V72c0-0.9,0.3-1.1,1.3-1.1v-0.4h-3.4v0.4
		c1.1,0,1.3,0.2,1.3,1.1v5.1c0,2-0.9,3-2.6,3c-1.4,0-2.1-0.8-2.1-2.5V72c0-0.9,0.3-1.1,1.3-1.1v-0.4h-5.1v0.4c1.1,0,1.3,0.3,1.3,1.1
		V77.2z"/>
	<path class="st0" d="M59.2,77.7c0-1.5-0.8-2.4-2.4-3.1l-1.4-0.7c-1-0.5-1.5-0.9-1.5-1.7c0-0.8,0.7-1.4,1.7-1.4c1.2,0,2.4,1,2.8,2.7
		h0.4v-3.3h-0.4c0,0.3-0.2,0.5-0.5,0.5c-0.4,0-1.2-0.5-2.5-0.5c-1.7,0-3,1.1-3,3c0,1.4,0.8,2.3,2.5,3.1l1.4,0.7
		c0.8,0.4,1.2,0.9,1.2,1.6c0,1-0.7,1.7-1.8,1.7c-1.6,0-2.5-1.1-3-3.2h-0.4v3.7h0.4c0.1-0.4,0.2-0.5,0.5-0.5c0.4,0,1.1,0.5,2.4,0.5
		C57.8,80.8,59.2,79.5,59.2,77.7z"/>
	<path class="st0" d="M68.9,76c2.4,0,3.7-1.1,3.7-2.8c0-2.2-1.9-2.7-4.1-2.7h-4.6v0.4c1.1,0,1.3,0.3,1.3,1.1v7.1
		c0,0.9-0.3,1.1-1.3,1.1v0.4H69v-0.4c-1.1,0-1.3-0.3-1.3-1.1v-3H68.9z M67.6,72c0-0.9,0.2-1,0.8-1c1.2,0,1.7,0.7,1.7,2.3
		c0,1.6-0.5,2.2-2,2.2h-0.4V72z"/>
	<path class="st0" d="M78.5,80c-0.8,0-1.1-0.2-1.1-0.9V72c0-0.9,0.3-1.1,1.3-1.1v-0.4h-5.1v0.4c1.1,0,1.3,0.3,1.3,1.1v7.1
		c0,0.9-0.3,1.1-1.3,1.1v0.4h8.6l0.6-3.2h-0.4C81.7,79.4,80.5,80,78.5,80z"/>
	<path class="st0" d="M91.9,78.7l-3.5-8.4h-0.4L84.4,79c-0.3,0.9-0.7,1.2-1.3,1.2v0.4h3v-0.4h-0.1c-0.7,0-1.1-0.2-1.1-0.7
		c0-0.2,0.1-0.4,0.2-0.8l0.4-1.1H89l0.4,1.1c0.2,0.4,0.2,0.6,0.2,0.8c0,0.4-0.4,0.6-1.2,0.6v0.4h4.8v-0.4
		C92.6,80.2,92.3,79.7,91.9,78.7z M85.9,77l1.4-3.5l1.4,3.5H85.9z"/>
	<path class="st0" d="M98.7,79.9h-1.9l5.6-9.2v-0.3h-7.7l-0.3,3.1h0.4c0.6-2,1.5-2.5,3.4-2.5h1.4l-5.7,9.3v0.2h8.6l0.4-3.6h-0.4
		C101.9,79,100.8,79.9,98.7,79.9z"/>
	<path class="st0" d="M112.1,78.7l-3.5-8.4h-0.4l-3.5,8.7c-0.3,0.9-0.7,1.2-1.3,1.2v0.4h3v-0.4h-0.1c-0.7,0-1.1-0.2-1.1-0.7
		c0-0.2,0.1-0.4,0.2-0.8l0.4-1.1h3.3l0.4,1.1c0.2,0.4,0.2,0.6,0.2,0.8c0,0.4-0.4,0.6-1.2,0.6v0.4h4.8v-0.4
		C112.7,80.2,112.5,79.7,112.1,78.7z M106.1,77l1.4-3.5l1.4,3.5H106.1z"/>
	<path class="st0" d="M37,58.3v-0.2h-2.9v0.2c0.6,0,0.8,0.1,0.8,0.6v1.7h-2V59c0-0.5,0.1-0.6,0.8-0.6v-0.2h-2.9v0.2
		c0.6,0,0.8,0.1,0.8,0.6v4c0,0.5-0.1,0.6-0.8,0.6v0.2h2.9v-0.2c-0.6,0-0.8-0.1-0.8-0.6v-1.9h2V63c0,0.5-0.1,0.6-0.8,0.6v0.2H37v-0.2
		c-0.6,0-0.8-0.1-0.8-0.6v-4C36.3,58.5,36.4,58.3,37,58.3z"/>
	<path class="st0" d="M46,64c1.7,0,3-1.3,3-3c0-1.7-1.3-3-2.9-3c-1.7,0-3,1.3-3,3C43,62.7,44.3,64,46,64z M46,58.3
		c0.9,0,1.5,0.9,1.5,2.7c0,1.8-0.5,2.7-1.5,2.7c-0.9,0-1.5-0.9-1.5-2.7C44.5,59.2,45,58.3,46,58.3z"/>
	<path class="st0" d="M58.3,58.4c0.9,0,1.4,0.5,1.5,1.4H60v-1.7h-5v1.7h0.2c0.1-0.9,0.6-1.4,1.5-1.4h0.1V63c0,0.5-0.1,0.6-0.8,0.6
		v0.2h2.9v-0.2c-0.6,0-0.8-0.1-0.8-0.6L58.3,58.4L58.3,58.4z"/>
	<path class="st0" d="M68.8,58.4c1.1,0,1.7,0.2,1.9,1.4h0.2v-1.7H66v0.2c0.6,0,0.8,0.1,0.8,0.6v4c0,0.5-0.1,0.6-0.8,0.6v0.2h4.9
		l0.3-1.8H71c-0.4,1.1-1.1,1.5-2.3,1.5c-0.5,0-0.6-0.1-0.6-0.5V61h0.1c0.8,0,1.1,0.4,1.2,1.3h0.2v-2.9h-0.2
		c-0.1,0.9-0.4,1.3-1.2,1.3h-0.1V59C68.2,58.5,68.3,58.4,68.8,58.4z"/>
	<path class="st0" d="M80.2,58.3v-0.2h-2.9v0.2c0.6,0,0.8,0.1,0.8,0.6v4c0,0.5-0.1,0.6-0.8,0.6v0.2h4.9l0.3-1.8h-0.2
		c-0.4,1.1-1.1,1.5-2.3,1.5c-0.5,0-0.6-0.1-0.6-0.5v-4C79.4,58.5,79.6,58.3,80.2,58.3z"/>
	<path class="st0" d="M41.3,90.8c0-0.1,0.1-2.5,0.2-3.7h-0.2L38.1,91c-0.3,0.4-0.6,0.5-0.8,0.5v0.2h1.4v-0.2c-0.3,0-0.3-0.1-0.3-0.2
		c0-0.1,0-0.2,0.2-0.4l0.5-0.6h1.4l0,0.5c0,0.5-0.1,0.7-0.6,0.7v0.2h2.1v-0.2C41.5,91.5,41.3,91.3,41.3,90.8z M40.4,90h-1.2l1.3-1.6
		L40.4,90z"/>
	<path class="st0" d="M46.5,88.2c0-0.7-0.5-1-1.6-1h-1.8v0.2c0.3,0,0.5,0.1,0.5,0.3c0,0.1,0,0.2-0.1,0.4l-0.7,2.8
		c-0.1,0.5-0.3,0.7-0.7,0.7v0.2h2.1v-0.2c-0.3,0-0.5-0.1-0.5-0.3c0,0,0-0.2,0.1-0.3l0.4-1.4h0.2l0.7,2.2h1.3v-0.2
		c-0.3,0-0.5-0.1-0.6-0.4l-0.6-1.7C46.1,89.2,46.5,88.8,46.5,88.2z M44.4,89.3c0,0-0.1,0-0.2,0l0.4-1.3c0.1-0.2,0.2-0.5,0.4-0.5
		c0.4,0,0.6,0.2,0.6,0.6C45.5,88.8,45.1,89.3,44.4,89.3z"/>
	<path class="st0" d="M50,87.4c0.2,0,0.4,0,0.4,0.2c0,0.1-0.2,0.3-0.5,0.6l-1.2,1.1c0,0,0,0-0.1,0c0,0,0,0,0,0c0,0,0,0,0.3-1.2
		c0.1-0.5,0.2-0.7,0.7-0.7v-0.2h-2.1v0.2c0.3,0,0.5,0.1,0.5,0.3c0,0.1,0,0.2,0,0.3l-0.7,2.8c-0.1,0.5-0.3,0.7-0.7,0.7v0.2h2.1v-0.2
		c-0.3,0-0.5-0.1-0.5-0.3c0,0,0-0.2,0.1-0.3l0.3-1.3c0-0.1,0-0.1,0-0.1c0,0,0,0,0,0l0.6,1.3c0.1,0.2,0.1,0.4,0.1,0.4
		c0,0.1-0.1,0.2-0.3,0.2H49v0.2h1.9v-0.2c-0.3,0-0.4-0.1-0.5-0.4l-1-2.1l1.3-1.2c0.3-0.3,0.5-0.4,0.6-0.4h0.1v-0.2H50V87.4z"/>
	<path class="st0" d="M57.6,89.5h-1.9v0.2c0.3,0,0.5,0.1,0.5,0.3c0,0.1,0,0.2-0.1,0.3L56,90.9c-0.1,0.4-0.3,0.6-0.7,0.6
		c-0.7,0-1.2-0.4-1.2-1.3c0-1,0.7-2.9,1.9-2.9c0.6,0,1,0.4,1,1.2h0.2l0.3-1.4h-0.2c-0.1,0.1-0.1,0.2-0.2,0.2c-0.2,0-0.5-0.2-1.1-0.2
		c-1.7,0-2.8,1.4-2.8,2.8c0,1.1,0.7,1.8,2,1.8c0.6,0,1.2-0.1,1.7-0.4l0.3-1.1c0.1-0.4,0.2-0.6,0.5-0.6V89.5z"/>
	<path class="st0" d="M62,88.2c0-0.7-0.5-1-1.6-1h-1.8v0.2c0.3,0,0.5,0.1,0.5,0.3c0,0.1,0,0.2-0.1,0.4l-0.7,2.8
		c-0.1,0.5-0.3,0.7-0.7,0.7v0.2h2.1v-0.2c-0.3,0-0.5-0.1-0.5-0.3c0,0,0-0.2,0.1-0.3l0.4-1.4h0.2l0.7,2.2h1.3v-0.2
		c-0.3,0-0.5-0.1-0.6-0.4l-0.6-1.7C61.5,89.2,62,88.8,62,88.2z M59.8,89.3c0,0-0.1,0-0.2,0l0.4-1.3c0.1-0.2,0.2-0.5,0.4-0.5
		c0.4,0,0.6,0.2,0.6,0.6C61,88.8,60.6,89.3,59.8,89.3z"/>
	<path class="st0" d="M65.3,87.1c-1.5,0-2.8,1.7-2.8,3c0,1,0.6,1.6,1.6,1.6c1.5,0,2.8-1.6,2.8-3.1C66.9,87.7,66.2,87.1,65.3,87.1z
		 M64.1,91.5c-0.4,0-0.6-0.3-0.6-0.9c0-0.9,0.6-3.3,1.7-3.3c0.4,0,0.7,0.3,0.7,0.9C65.9,89.1,65.3,91.5,64.1,91.5z"/>
	<path class="st0" d="M72.1,87.4v-0.2h-1.4v0.2c0.3,0,0.5,0.1,0.5,0.3c0,0.1,0,0.2-0.1,0.4l-0.5,1.7c-0.3,1.1-0.6,1.6-1.4,1.6
		c-0.5,0-0.8-0.3-0.8-0.7c0-0.1,0-0.3,0.1-0.6l0.6-2.1c0.1-0.5,0.2-0.7,0.7-0.7v-0.2h-2.1v0.2c0.3,0,0.5,0.1,0.5,0.3
		c0,0.1,0,0.2,0,0.3l-0.5,1.9c-0.1,0.3-0.1,0.5-0.1,0.7c0,0.7,0.5,1.2,1.5,1.2c1,0,1.6-0.6,1.9-1.7l0.5-2
		C71.5,87.5,71.7,87.4,72.1,87.4z"/>
	<path class="st0" d="M74.4,87.2h-1.8v0.2c0.3,0,0.5,0.1,0.5,0.3c0,0.1,0,0.2-0.1,0.4l-0.7,2.8c-0.1,0.5-0.3,0.7-0.7,0.7v0.2h2.1
		v-0.2c-0.3,0-0.5-0.1-0.5-0.3c0,0,0-0.2,0.1-0.3l0.4-1.3h0.2c1.1,0,2.1-0.3,2.1-1.3C75.9,87.6,75.4,87.2,74.4,87.2z M73.8,89.3
		c-0.1,0-0.2,0-0.2,0l0.3-1.3c0.1-0.3,0.2-0.6,0.4-0.6c0.4,0,0.6,0.2,0.6,0.6C74.9,88.9,74.5,89.3,73.8,89.3z"/>
	<path class="st0" d="M80.3,89.6c-0.9,0.2-1.4,0.6-1.8,1.2c0.3,0.5,0.8,0.9,1.7,0.8c0.2,0,0.5-0.1,0.7-0.2c0.2-0.1,0.4-0.2,0.6-0.3
		c0.4-0.3,0.8-0.6,1.1-0.9C81.9,89.7,81.2,89.4,80.3,89.6z"/>
	<path class="st0" d="M79,87.1c-0.7,0.7-1.5,2.2-0.9,3.1C78.9,89.9,79.5,88.6,79,87.1z"/>
	<path class="st0" d="M32.8,89.6c-0.9-0.2-1.6,0.1-2.2,0.6c0.3,0.4,0.7,0.7,1.1,0.9c0.2,0.1,0.4,0.2,0.6,0.3
		c0.2,0.1,0.4,0.1,0.7,0.2c0.9,0.1,1.4-0.3,1.7-0.8C34.2,90.2,33.7,89.7,32.8,89.6z"/>
	<path class="st0" d="M35,90.3c0.5-0.9-0.2-2.4-0.9-3.1C33.6,88.6,34.2,89.9,35,90.3z"/>
	<path class="st0" d="M38.4,12.7v15.9c0,3.1,1.6,5.9,4.2,7.5l11.9,7.5l11.9-7.5c2.6-1.6,4.2-4.5,4.2-7.5V12.7c0-2.3,0.5-3.1,3.7-3.1
		h0.3V7.8h-6.3l-0.1-0.1c0,0-2.1-2.9-5.7-5.9c-1.6-1.3-2.8-2.1-4.3-1.7c-1.3,0.3-2.8,1.4-5.2,3.3l-0.1,0.1c-1.6-1.5-2.7-2.1-4.4-1.5
		c-1.6,0.6-3.7,2.3-7.9,5.8l-0.1,0.1v0h-6.3v1.8h0.3C37.9,9.6,38.4,10.3,38.4,12.7z M35.1,8.6l0.2-0.1h1.3L35.7,9
		c-0.2,0-0.4,0-0.7,0V8.6z M37.1,8.5h1.3l-1.2,0.8c-0.3-0.1-0.6-0.2-1-0.2L37.1,8.5z M37.5,9.4l1.4-0.9h1.3l-2,1.3
		C38,9.6,37.8,9.5,37.5,9.4z M69.9,8.5h1.3l-2.7,1.7V9.4L69.9,8.5z M68.4,9.1V8.5h0.9L68.4,9.1z M71.7,8.5H73l-1.4,0.9
		c-0.3,0.1-0.5,0.3-0.7,0.4l-2.4,1.5v-0.8L71.7,8.5z M70.4,10.4c-0.1,0.3-0.2,0.6-0.3,1l-1.7,1.1v-0.8L70.4,10.4z M70.1,11.8
		c0,0.3,0,0.5,0,0.8l-1.6,1v-0.8L70.1,11.8z M70,13v0.8l-1.6,1V14L70,13z M70,14.1v0.8l-1.6,1v-0.8L70,14.1z M70,15.3v0.8l-1.6,1
		v-0.8L70,15.3z M70,16.4v0.8l-1.6,1v-0.8L70,16.4z M70,28.7l-1.7,1.1c0-0.3,0.1-0.6,0.1-0.9l1.6-1L70,28.7C70,28.6,70,28.7,70,28.7
		z M39.1,28.6v-0.8l1.6-1v0v0.8L39.1,28.6C39.1,28.6,39.1,28.6,39.1,28.6z M40.7,17.3l-1.6,1v-0.8l1.6-1V17.3z M39.1,21l1.6-1v0.8
		l-1.6,1V21z M39.1,22.1l1.6-1v0.8l-1.6,1V22.1z M39.1,23.3l1.6-1v0.8l-1.6,1V23.3z M39.1,24.4l1.6-1v0.8l-1.6,1V24.4z M39.1,25.6
		l1.6-1v0.8l-1.6,1V25.6z M39.1,26.7l1.6-1v0.8l-1.6,1V26.7z M40.7,19.6l-1.6,1v-0.8l1.6-1V19.6z M40.7,16.2l-1.6,1v-0.8l1.6-1V16.2
		z M40.7,15.1l-1.6,1v-0.8l1.6-1V15.1z M40.7,13.9l-1.6,1v-0.8l1.6-1V13.9z M40.7,12.8l-1.6,1V13l1.6-1V12.8z M40.7,10.5L39,11.5
		c0-0.3-0.1-0.5-0.2-0.7l1.8-1.2V10.5z M40.7,10.8v0.8l-1.6,1c0-0.3,0-0.5,0-0.8L40.7,10.8z M40.7,28v0.6c0,0.1,0,0.1,0,0.2l-1.5,1
		c0-0.3,0-0.5-0.1-0.8L40.7,28z M40.7,29.1c0,0.3,0.1,0.5,0.1,0.7l-1.4,0.9c-0.1-0.2-0.1-0.5-0.1-0.7L40.7,29.1z M40.9,30.2
		c0.1,0.2,0.1,0.5,0.2,0.7l-1.4,0.9c-0.1-0.2-0.2-0.4-0.2-0.7L40.9,30.2z M41.2,31.1c0.1,0.2,0.2,0.4,0.3,0.6l-1.4,0.9
		c-0.1-0.2-0.2-0.4-0.3-0.6L41.2,31.1z M41.6,32c0.1,0.2,0.2,0.4,0.4,0.6l-1.3,0.8c-0.1-0.2-0.3-0.4-0.4-0.6L41.6,32z M43.4,34
		L42,34.9c-0.2-0.2-0.4-0.3-0.5-0.5l1.4-0.9C43,33.7,43.2,33.8,43.4,34z M43.6,34.2c0.1,0,0.1,0.1,0.2,0.1l0.5,0.3l-1.5,0.9
		c-0.2-0.1-0.4-0.3-0.6-0.4L43.6,34.2z M44.5,34.7l0.6,0.4l-1.5,0.9L43,35.7L44.5,34.7z M45.4,35.3l0.6,0.4l-1.5,0.9L44,36.3
		L45.4,35.3z M46.4,35.9l0.6,0.4l-1.5,0.9l-0.6-0.4L46.4,35.9z M47.3,36.5l0.6,0.4l-1.5,0.9l-0.6-0.4L47.3,36.5z M48.2,37l0.6,0.4
		l-1.5,0.9L46.7,38L48.2,37z M49.1,37.6l0.6,0.4L48.2,39l-0.6-0.4L49.1,37.6z M50,38.2l0.6,0.4l-1.5,0.9l-0.6-0.4L50,38.2z
		 M50.9,38.8l0.6,0.4l-1.5,0.9l-0.6-0.4L50.9,38.8z M51.8,39.3l0.6,0.4L51,40.7l-0.6-0.4L51.8,39.3z M52.7,39.9l0.6,0.4l-1.5,0.9
		l-0.6-0.4L52.7,39.9z M53.6,40.5l0.6,0.4l-1.5,0.9l-0.6-0.4L53.6,40.5z M69.4,31.7c-0.2,0.4-0.4,0.8-0.6,1.2l-15.1,9.5L53.1,42
		L69.4,31.7z M66.8,33c0.4-0.4,0.7-0.9,1-1.4l2.1-1.3c-0.1,0.3-0.2,0.7-0.3,1L66.8,33z M67.9,31.1c0.1-0.3,0.2-0.7,0.3-1L70,29
		c0,0.3,0,0.6-0.1,0.9L67.9,31.1z M68.4,28.5v-0.8l1.6-1v0.8L68.4,28.5z M68.4,27.4v-0.5v-0.3l1.6-1v0.8L68.4,27.4z M68.4,26.2v-0.8
		l1.6-1v0.8L68.4,26.2z M68.4,25.1v-0.8l1.6-1v0.8L68.4,25.1z M68.4,24v-0.8l1.6-1V23L68.4,24z M68.4,22.8V22l1.6-1v0.8L68.4,22.8z
		 M68.4,21.7v-0.8l1.6-1v0.8L68.4,21.7z M68.4,20.5v-0.8l1.6-1v0.8L68.4,20.5z M68.4,19.4v-0.8l1.6-1v0.8L68.4,19.4z M40.7,18.5
		l-1.6,1v-0.8l1.6-1v0.6V18.5z M38.4,10l2.3-1.5v0.8l-1.9,1.2C38.6,10.3,38.5,10.1,38.4,10z M40.8,33.7l1.4-0.9
		c0.1,0.2,0.3,0.4,0.5,0.5l-1.4,0.9C41.1,34,40.9,33.8,40.8,33.7z M66.2,35.6l-11.6,7.3L54,42.6l14.5-9.1
		C67.9,34.3,67.1,35,66.2,35.6z M74,9L74,9C73.4,9,73,9,72.5,9.1l1-0.6H74V9z M41.3,8.1c3.9-3.3,6.1-5,7.6-5.6
		c0.2-0.1,0.4-0.1,0.6-0.2c0,0,0,0,0,0c0.1,0.1,0.2,0.2,0.2,0.3c0.1,0.3,0,0.6,0.1,0.9c0,0.2,0.1,0.4,0.2,0.7
		c0.1,0.1,0.1,0.3,0.2,0.4c0,0.1,0,0.1,0,0.2c0,0.2-0.2,0.3-0.2,0.4c0,0.1,0,0.2,0,0.3c-0.1,0.3-0.5,0.5-0.6,0.9
		c0.2,0,0.4-0.1,0.5-0.2c0.8-0.5,2.3-1.5,3.1-2.1l0.5-0.4c2.5-2,3.9-3,5.2-3.2C59,0.8,59.2,1,59.3,1.3c0,0.1,0.1,0.2,0.1,0.3
		c0,0.1-0.1,0.2-0.1,0.2c-0.2,0.3-0.2,0.8-0.1,1.1c0,0.1,0.1,0.1,0.1,0.2c0,0.2-0.2,0.3-0.2,0.5c-0.1,0.2,0,0.5,0.2,0.7
		c0.2,0.2,0.4,0.2,0.7,0.3c0.3,0,0.6,0.1,0.7,0.3c0,0,0.1,0.1,0.1,0.2C60.9,5,61,5,61.1,5.1c0.4,0.2,0.8,0.4,1,0.8
		c0.2,0.4,0.1,0.9-0.2,1.1c-0.1,0.1-0.3,0.1-0.4,0.2c-0.1,0.1-0.2,0.2-0.2,0.4c0,0.2,0.2,0.3,0.4,0.4c0.6,0.2,1.3,0,2-0.1
		c0.6-0.1,1.3,0,1.9,0c0.9,0,1.3,0.1,2.2,0.2v10.2v8.6c0,1-0.5,1.9-1.3,2.4l-11.9,7.5l-11.9-7.5c-0.8-0.5-1.3-1.4-1.3-2.4v-8.6V8.1z
		"/>
	<path class="st0" d="M44.5,7.5c0.4-0.1,0.7-0.1,1.1-0.1c0.7,0,1.3,0.3,1.9,0.2c0.2,0,0.4-0.1,0.4-0.3c-0.4,0-0.8-0.1-1.2-0.3
		c-0.1-0.1-0.2-0.1-0.3-0.2C46,6.6,45.6,7,45.2,7c-0.3,0-1.4-0.3-1.4,0.4C43.8,7.7,44.3,7.5,44.5,7.5z"/>
	<path class="st0" d="M55.4,5.8c0.3,0.2,0.3,0.8,0.6,1c0.2,0.2,0.6,0.2,0.9,0.3c0.7,0,1.4,0.2,2.1,0.4c0.1,0.1,0.3,0.1,0.4,0
		c0.2-0.1,0.2-0.3,0.2-0.5c0-0.1,0-0.1,0-0.2c0-0.1-0.1-0.1-0.2-0.1c-0.2-0.1-0.5-0.1-0.7-0.3c-0.3-0.2-0.5-0.5-0.7-0.7
		c-0.2-0.3-0.4-0.6-0.6-0.9c-0.1-0.2-0.2-0.3-0.4-0.4c-0.3-0.3-0.8-0.2-1.2-0.2c-0.2,0-0.3,0.1-0.4,0.2c-0.1,0.2-0.2,0.2-0.4,0.3
		C55,5,54.8,5.2,54.8,5.4C54.9,5.6,55.2,5.7,55.4,5.8z"/>
	<path class="st0" d="M52.3,6.8c0.2,0,0.4-0.1,0.5,0c0.1,0,0.1,0.1,0.2,0.1c0.1,0,0.2,0,0.3,0c0.1,0,0.1,0.1,0.2,0.1
		c0.1,0,0.2,0,0.2,0c0.1-0.1,0-0.2,0-0.3c-0.1-0.1-0.1-0.1-0.2-0.2c-0.1-0.1-0.1-0.2-0.1-0.3c-0.2-0.4-0.7,0-0.9,0.1
		c-0.1,0.1-0.2,0.2-0.2,0.3C52.2,6.7,52.2,6.8,52.3,6.8C52.3,6.8,52.3,6.8,52.3,6.8z"/>
	<path class="st0" d="M63.1,43.8c0,0.4,0,0.6,0,0.6c3.4-1.4,3.8-4.2,3.3-5.5C64.6,40,63.3,41.6,63.1,43.8z"/>
	<path class="st0" d="M70.1,36c-2.3,1.8-2.8,4.2-2.5,5.7C70.5,40.2,71.1,37.4,70.1,36z"/>
	<path class="st0" d="M76.1,18.2c1.2-3.2-0.6-5.8-1.6-6.4C73.8,15,74.8,17.4,76.1,18.2z"/>
	<path class="st0" d="M72.4,31.1c-1.3,2.4-1.2,4.6-0.4,6.1C74.2,34.7,73.7,32.1,72.4,31.1z"/>
	<path class="st0" d="M74.8,32.1c1.3-3,0-5.1-1.2-5.6C72.9,29.4,73.9,31.3,74.8,32.1z"/>
	<path class="st0" d="M75.8,27.1c0.7-2.9-0.6-4.8-1.9-5.1C73.6,24.7,74.6,26.4,75.8,27.1z"/>
	<path class="st0" d="M76.1,22.3c0.2-3-1.4-4.2-2.2-4.2C73.9,20.5,75.1,21.9,76.1,22.3z"/>
	<path class="st0" d="M63.6,45.2c1.8,1.6,4.2,1.1,6.2-0.7c-1.6-1.6-4.6-0.7-6.6,0.2C63.2,44.8,63.3,45,63.6,45.2z"/>
	<path class="st0" d="M74.1,39.7c-2-0.8-4.6,1.1-6.2,2.6C69.4,43.5,72.3,43,74.1,39.7z"/>
	<path class="st0" d="M62.1,41.4c-2.1,0.8-3.6,2.2-4.2,4.5c-0.1,0.4-0.1,0.7-0.1,0.7C61.6,45.7,62.5,42.9,62.1,41.4z"/>
	<path class="st0" d="M64.9,47.9c-1.4-1.9-4.7-1.6-7-1c0,0,0.1,0.2,0.4,0.5C59.9,49.5,62.5,49.4,64.9,47.9z"/>
	<path class="st0" d="M77.6,33.3c-2-0.2-4.1,2.4-5.3,4.2C74.2,38.3,76.8,36.8,77.6,33.3z"/>
	<path class="st0" d="M75.7,32.3c1.9-0.4,3-2.5,3-5c-1.9,0.3-3,3.1-3.5,5.1C75.2,32.3,75.4,32.3,75.7,32.3z"/>
	<path class="st0" d="M76.3,27.1c1.6-0.2,3.1-2.1,2.8-5.2C77.3,22.4,76.5,25.1,76.3,27.1z"/>
	<path class="st0" d="M78.1,17.2c-1.5,0.7-1.7,3.1-1.5,5C77.6,21.8,78.9,20.1,78.1,17.2z"/>
	<path class="st0" d="M56.3,47.3c0-1-0.8-1.8-1.8-1.8c-1,0-1.8,0.8-1.8,1.8c0,1,0.8,1.8,1.8,1.8C55.5,49.1,56.3,48.3,56.3,47.3z
		 M54.5,48.5c-0.6,0-1.2-0.5-1.2-1.2c0-0.6,0.5-1.2,1.2-1.2c0.6,0,1.2,0.5,1.2,1.2C55.7,48,55.2,48.5,54.5,48.5z"/>
	<path class="st0" d="M52.2,11.9V14h3.1v-2.1h1.5c2,0,3.6,1.6,3.6,3.6v1.1c0,2-1.6,3.6-3.6,3.6h-0.5V21h2.2c2.7,0,5-2.2,5-5
		c0-2.7-2.2-5-5-5h-6.3v0h-1v0.5c0.1,0.1,0.3,0.2,0.5,0.2C51.9,11.8,52.1,11.9,52.2,11.9z"/>
	<path class="st0" d="M55.3,29.3v-2.1h-3.1v2.1c-0.2,0-0.3,0.1-0.5,0.1c-0.2,0.1-0.3,0.1-0.5,0.2v0.5h1h3.1h1v-0.5
		c-0.1-0.1-0.3-0.2-0.5-0.2C55.6,29.4,55.5,29.4,55.3,29.3z"/>
	<path class="st0" d="M45.6,15v0.5c0.1,0.1,0.3,0.2,0.5,0.2c0.2,0.1,0.4,0.1,0.5,0.1v9.6c-0.2,0-0.3,0.1-0.5,0.1
		c-0.2,0.1-0.3,0.1-0.5,0.2v0.5h1h3.1h6.9h1.3v-0.8c0-0.4-0.2-1.1-0.2-1.4h-0.5l-0.6,1.4h-6.9V21h2.6v3.4h3.1v-7.6h-3.1v3.4h-2.6
		v-4.4h6.9l0.6,1.4h0.5c0.1-0.3,0.2-1,0.2-1.4V15h-1.3h-6.9h-3.1H45.6z"/>
	<path class="st0" d="M46,43.8c-0.2-2.3-1.4-3.8-3.3-4.9c-0.5,1.3-0.1,4.1,3.3,5.5C46,44.5,46,44.2,46,43.8z"/>
	<path class="st0" d="M39,36c-0.9,1.4-0.3,4.2,2.5,5.7C41.8,40.2,41.2,37.8,39,36z"/>
	<path class="st0" d="M34.7,11.8c-1.1,0.6-2.8,3.2-1.6,6.4C34.3,17.4,35.3,15,34.7,11.8z"/>
	<path class="st0" d="M36.7,31.1c-1.3,0.9-1.8,3.6,0.4,6.1C37.9,35.7,38,33.5,36.7,31.1z"/>
	<path class="st0" d="M34.3,32.1c0.9-0.8,1.9-2.7,1.2-5.6C34.3,27,33,29.1,34.3,32.1z"/>
	<path class="st0" d="M33.3,27.1c1.3-0.7,2.2-2.5,1.9-5.1C33.9,22.3,32.6,24.2,33.3,27.1z"/>
	<path class="st0" d="M33,22.3c1.1-0.4,2.3-1.7,2.2-4.2C34.3,18.1,32.8,19.3,33,22.3z"/>
	<path class="st0" d="M45.5,45.2c0.3-0.2,0.4-0.4,0.4-0.4c-2-0.9-5-1.8-6.6-0.2C41.3,46.3,43.7,46.8,45.5,45.2z"/>
	<path class="st0" d="M41.2,42.2c-1.6-1.5-4.2-3.4-6.2-2.6C36.8,43,39.7,43.5,41.2,42.2z"/>
	<path class="st0" d="M51.2,45.9c-0.5-2.3-2.1-3.7-4.2-4.5c-0.4,1.5,0.5,4.3,4.3,5.2C51.3,46.6,51.2,46.3,51.2,45.9z"/>
	<path class="st0" d="M50.9,47.5c0.2-0.3,0.4-0.5,0.4-0.5c-2.2-0.6-5.6-0.9-7,1C46.6,49.4,49.2,49.5,50.9,47.5z"/>
	<path class="st0" d="M31.5,33.3c0.8,3.4,3.4,5,5.3,4.2C35.6,35.7,33.5,33.1,31.5,33.3z"/>
	<path class="st0" d="M30.3,27.3c0,2.5,1.1,4.6,3,5c0.3,0.1,0.5,0,0.5,0C33.3,30.3,32.2,27.6,30.3,27.3z"/>
	<path class="st0" d="M32.8,27.1c-0.2-2-1-4.7-2.8-5.2C29.8,25,31.3,26.9,32.8,27.1z"/>
	<path class="st0" d="M32.5,22.2c0.2-1.8,0-4.2-1.5-5C30.2,20.1,31.5,21.8,32.5,22.2z"/>
</g>
</svg>
